<svg xmlns="http://www.w3.org/2000/svg" width="34" height="38" fill="none" viewBox="0 0 34 38">
  <path fill="#CCC" d="M32.904 15.133L18.341.553a1.923 1.923 0 00-2.682 0L1.096 15.151c-.353.348-.63.76-.819 1.215-.188.454-.282.94-.277 1.43v15.507a3.66 3.66 0 001.032 2.547 3.811 3.811 0 002.538 1.154h26.86a3.812 3.812 0 002.538-1.154A3.66 3.66 0 0034 33.305V17.798a3.789 3.789 0 00-1.096-2.665zM13.222 33.304V22.202h7.556v11.102h-7.556zm17 0h-5.666V20.351c0-.49-.2-.961-.554-1.308a1.909 1.909 0 00-1.335-.542H11.333c-.5 0-.98.195-1.335.542a1.831 1.831 0 00-.553 1.308v12.953H3.778v-15.58L17 4.494l13.222 13.304v15.506z"/>
</svg>
