<svg xmlns="http://www.w3.org/2000/svg" width="36" height="37" fill="none" viewBox="0 0 36 37">
  <g clip-path="url(#clip0_1253_102)">
    <path fill="#CCC" d="M28.125.505H7.875A7.875 7.875 0 000 8.38v20.25a7.875 7.875 0 007.875 7.875h20.25A7.875 7.875 0 0036 28.63V8.38A7.875 7.875 0 0028.125.505zM33.75 28.63a5.625 5.625 0 01-5.625 5.625H7.875A5.625 5.625 0 012.25 28.63V8.38a5.625 5.625 0 015.625-5.625h20.25A5.625 5.625 0 0133.75 8.38v20.25z"/>
    <path fill="#CCC" d="M11.25 8.38H9c-.621 0-1.125.504-1.125 1.125v2.25c0 .621.504 1.125 1.125 1.125h2.25c.621 0 1.125-.504 1.125-1.125v-2.25c0-.621-.504-1.125-1.125-1.125zM11.25 16.255H9c-.621 0-1.125.504-1.125 1.125v2.25c0 .621.504 1.125 1.125 1.125h2.25c.621 0 1.125-.504 1.125-1.125v-2.25c0-.621-.504-1.125-1.125-1.125zM11.25 24.13H9c-.621 0-1.125.504-1.125 1.125v2.25c0 .621.504 1.125 1.125 1.125h2.25c.621 0 1.125-.504 1.125-1.125v-2.25c0-.621-.504-1.125-1.125-1.125zM28.125 9.505h-13.5v2.25h13.5v-2.25zM28.125 17.38h-13.5v2.25h13.5v-2.25zM28.125 25.255h-13.5v2.25h13.5v-2.25z"/>
  </g>
  <defs>
    <clipPath id="clip0_1253_102">
      <path fill="#fff" d="M0 0h36v36H0z" transform="translate(0 .505)"/>
    </clipPath>
  </defs>
</svg>
