<svg id="Layer_1" data-name="Layer 1" xmlns="http://www.w3.org/2000/svg" viewBox="0 0 120.67 89.14">
  <g>
    <path d="M84,130.49l-10.17,5.67a.72.72,0,0,1-1.07-.74l1.79-12.53a.43.43,0,0,1,.69-.27l8.82,7.17A.42.42,0,0,1,84,130.49Z" transform="translate(-39.67 -55.43)" fill="#1d71b7"/>
    <path d="M159.93,59.81l-.7,1.2-48.14,82.64a1.84,1.84,0,0,1-2.75.51L76.66,118.7l.12-.81,49.51-37a1.43,1.43,0,0,0,.33-1.94h0a1.44,1.44,0,0,0-2-.4L70.36,113l0,.22-2.75,19.19a.59.59,0,0,1-1.16,0L61,105.68l-4.14-3.37L40.34,88.86A1.85,1.85,0,0,1,41,85.65L143.55,58.38,156.8,55.5a2.9,2.9,0,0,1,3.13,4.31Z" transform="translate(-39.67 -55.43)" fill="#333e50"/>
  </g>
</svg>
