<svg xmlns="http://www.w3.org/2000/svg" width="37" height="38" fill="none" viewBox="0 0 37 38">
  <path fill="#CCC" d="M12.234 36.992a4.161 4.161 0 01-2.497-.85l-3.83-2.85a4.384 4.384 0 01-.905-5.955 3.81 3.81 0 00.425-3.44l-.11-.296a3.385 3.385 0 00-2.072-2.257h-.296A4.328 4.328 0 01.21 15.906l1.517-4.808A4.032 4.032 0 013.799 8.49a3.958 3.958 0 013.108-.222 3.57 3.57 0 003.292-.537l.24-.185a3.59 3.59 0 001.35-2.793V4.31A4.29 4.29 0 0116.026 0h4.717a4.18 4.18 0 012.96 1.24 4.384 4.384 0 011.257 3.107v.517a3.255 3.255 0 001.276 2.645l.204.148a3.218 3.218 0 002.94.481l.63-.203a4.18 4.18 0 015.326 2.793l1.461 4.66a4.365 4.365 0 01-2.7 5.42l-.37.13a3.496 3.496 0 00-2.275 2.367 3.698 3.698 0 00.462 3.052l.481.703a4.402 4.402 0 01-.925 5.974L27.752 35.9a4.144 4.144 0 01-5.956-.98l-.222-.315a3.237 3.237 0 00-2.774-1.443 3.33 3.33 0 00-2.645 1.424l-.426.61a4.163 4.163 0 01-2.774 1.795c-.24.023-.482.023-.721 0zM4.447 17.793a7.084 7.084 0 014.402 4.624v.222a7.399 7.399 0 01-.851 6.696.703.703 0 000 .943l3.977 3.015a.463.463 0 00.684-.13l.425-.61a6.972 6.972 0 0111.468 0l.222.333c.08.113.198.192.333.222a.463.463 0 00.351-.093l3.81-2.885a.665.665 0 00.13-.906l-.481-.703a7.4 7.4 0 01-.98-6.326 7.252 7.252 0 014.605-4.827l.37-.13a.629.629 0 00.352-.814L31.82 11.82a.648.648 0 00-.37-.352.39.39 0 00-.352 0l-.628.204a6.918 6.918 0 01-6.345-1.054l-.074-.167a6.954 6.954 0 01-2.755-5.549v-.573a.684.684 0 00-.185-.48.573.573 0 00-.389-.149h-4.698a.573.573 0 00-.536.61v.463a7.214 7.214 0 01-2.812 5.715l-.24.185a7.232 7.232 0 01-6.714 1.091.407.407 0 00-.259 0 .518.518 0 00-.222.278l-1.535 4.827a.666.666 0 00.407.833l.333.092z"/>
  <path fill="#CCC" d="M18.504 24.97a6.474 6.474 0 110-12.949 6.474 6.474 0 010 12.948zm0-9.249a2.774 2.774 0 100 5.548 2.774 2.774 0 000-5.548z"/>
</svg>
